{
  "accessors": [
    {
      "bufferView": 2,
      "componentType": 5126,
      "count": 1315,
      "max": [
        24.381101608276367,
        56.42940139770508,
        28.072999954223633
      ],
      "min": [
        -24.381101608276367,
        -0.5234869718551636,
        -43.55120086669922
      ],
      "type": "VEC3"
    },
    {
      "bufferView": 2,
      "byteOffset": 15780,
      "componentType": 5126,
      "count": 1315,
      "max": [
        0.9982149004936218,
        0.9996143579483032,
        0.9999732375144958
      ],
      "min": [
        -0.9982149004936218,
        -0.9995572566986084,
        -0.9981994032859802
      ],
      "type": "VEC3"
    },
    {
      "bufferView": 1,
      "componentType": 5126,
      "count": 1315,
      "max": [
        0.9901790022850037,
        0.9925529956817627
      ],
      "min": [
        0.009002000093460083,
        0.006490999832749367
      ],
      "type": "VEC2"
    },
    {
      "bufferView": 0,
      "componentType": 5125,
      "count": 6768,
      "type": "SCALAR"
    },
    {
      "bufferView": 2,
      "byteOffset": 31560,
      "componentType": 5126,
      "count": 1315,
      "max": [
        24.381101608276367,
        56.42940139770508,
        28.072999954223633
      ],
      "min": [
        -24.381101608276367,
        -0.5234869718551636,
        -43.55120086669922
      ],
      "type": "VEC3"
    },
    {
      "bufferView": 2,
      "byteOffset": 47340,
      "componentType": 5126,
      "count": 1315,
      "max": [
        0.9982149004936218,
        0.9996143579483032,
        0.9999732375144958
      ],
      "min": [
        -0.9982149004936218,
        -0.9995572566986084,
        -0.9981994032859802
      ],
      "type": "VEC3"
    },
    {
      "bufferView": 1,
      "byteOffset": 10520,
      "componentType": 5126,
      "count": 1315,
      "max": [
        0.9901790022850037,
        0.9925529956817627
      ],
      "min": [
        0.009002000093460083,
        0.006490999832749367
      ],
      "type": "VEC2"
    },
    {
      "bufferView": 0,
      "byteOffset": 27072,
      "componentType": 5125,
      "count": 6768,
      "type": "SCALAR"
    }
  ],
  "asset": {
    "extras": {
      "author": "LunaEagle (https://sketchfab.com/LunaEagle)",
      "license": "CC-BY-4.0 (http://creativecommons.org/licenses/by/4.0/)",
      "source": "https://sketchfab.com/3d-models/substitute-a21a74a4d5cd42479beb0dab4944ee95",
      "title": "Substitute"
    },
    "generator": "Sketchfab-15.5.0",
    "version": "2.0"
  },
  "bufferViews": [
    {
      "buffer": 0,
      "byteLength": 54144,
      "name": "floatBufferViews",
      "target": 34963
    },
    {
      "buffer": 0,
      "byteLength": 21040,
      "byteOffset": 54144,
      "byteStride": 8,
      "name": "floatBufferViews",
      "target": 34962
    },
    {
      "buffer": 0,
      "byteLength": 63120,
      "byteOffset": 75184,
      "byteStride": 12,
      "name": "floatBufferViews",
      "target": 34962
    }
  ],
  "buffers": [
    {
      "byteLength": 138304,
      "uri": "scene.bin"
    }
  ],
  "images": [
    {
      "uri": "textures/ob0301_00_Body1_tga_baseColor.png"
    }
  ],
  "materials": [
    {
      "doubleSided": true,
      "name": "ob0301_00_Body1_tga",
      "pbrMetallicRoughness": {
        "baseColorTexture": {
          "index": 0
        },
        "metallicFactor": 0.0
      }
    }
  ],
  "meshes": [
    {
      "name": "Object_0",
      "primitives": [
        {
          "attributes": {
            "NORMAL": 1,
            "POSITION": 0,
            "TEXCOORD_0": 2
          },
          "indices": 3,
          "material": 0,
          "mode": 4
        }
      ]
    },
    {
      "name": "Object_1",
      "primitives": [
        {
          "attributes": {
            "NORMAL": 5,
            "POSITION": 4,
            "TEXCOORD_0": 6
          },
          "indices": 7,
          "material": 0,
          "mode": 4
        }
      ]
    }
  ],
  "nodes": [
    {
      "children": [
        1
      ],
      "matrix": [
        1.0,
        0.0,
        0.0,
        0.0,
        0.0,
        2.220446049250313e-16,
        -1.0,
        0.0,
        0.0,
        1.0,
        2.220446049250313e-16,
        0.0,
        0.0,
        0.0,
        0.0,
        1.0
      ],
      "name": "Sketchfab_model"
    },
    {
      "children": [
        2
      ],
      "matrix": [
        1.0,
        0.0,
        0.0,
        0.0,
        0.0,
        -4.371139006309477e-08,
        0.999999999999999,
        0.0,
        0.0,
        -0.999999999999999,
        -4.371139006309477e-08,
        0.0,
        0.0,
        0.0,
        0.0,
        1.0
      ],
      "name": "Collada visual scene group"
    },
    {
      "children": [
        3,
        4
      ],
      "name": "Object_2"
    },
    {
      "mesh": 0,
      "name": "Object_3"
    },
    {
      "mesh": 1,
      "name": "Object_4"
    }
  ],
  "samplers": [
    {
      "magFilter": 9729,
      "minFilter": 9987,
      "wrapS": 10497,
      "wrapT": 10497
    }
  ],
  "scene": 0,
  "scenes": [
    {
      "name": "Sketchfab_Scene",
      "nodes": [
        0
      ]
    }
  ],
  "textures": [
    {
      "sampler": 0,
      "source": 0
    }
  ]
}
